<svg width="1300" height="560" viewBox="0 0 1300 560" xmlns="http://www.w3.org/2000/svg">
  <defs>
    <linearGradient id="bg3" x1="0" y1="0" x2="1" y2="1">
      <stop offset="0%" stop-color="#fbfdff"/>
      <stop offset="100%" stop-color="#eef6fb"/>
    </linearGradient>
    <filter id="shadow3" x="-20%" y="-20%" width="140%" height="140%">
      <feDropShadow dx="0" dy="8" stdDeviation="10" flood-color="#8aa0b6" flood-opacity="0.15"/>
    </filter>
    <marker id="arrow3" markerWidth="12" markerHeight="12" refX="10" refY="6" orient="auto">
      <path d="M0,0 L12,6 L0,12 Z" fill="#4d88b8"/>
    </marker>
  </defs>
  <rect width="1300" height="560" rx="26" fill="url(#bg3)"/>

  <text x="110" y="78" font-family="Arial, Helvetica, sans-serif" font-size="30" font-weight="700" fill="#1f5aa6">small, repeatable run</text>
  <g filter="url(#shadow3)">
    <rect x="90" y="120" width="210" height="84" rx="20" fill="#edf2ff"/>
    <rect x="350" y="120" width="180" height="84" rx="20" fill="#eef9ff"/>
    <rect x="580" y="120" width="220" height="84" rx="20" fill="#e8faf1"/>
  </g>
  <g font-family="Arial, Helvetica, sans-serif" font-size="24" fill="#17324d" font-weight="600" text-anchor="middle">
    <text x="195" y="170">define setup</text>
    <text x="440" y="170">run</text>
    <text x="690" y="170">compare</text>
  </g>
  <g stroke="#4d88b8" stroke-width="5" fill="none" marker-end="url(#arrow3)">
    <line x1="300" y1="162" x2="350" y2="162"/>
    <line x1="530" y1="162" x2="580" y2="162"/>
  </g>

  <path d="M650,240 C650,285 650,285 650,328" stroke="#2b9dbf" stroke-width="6" fill="none" marker-end="url(#arrow3)"/>
  <rect x="450" y="248" width="400" height="52" rx="14" fill="#ffffff" stroke="#d8e4ef" stroke-width="2"/>
  <text x="650" y="281" text-anchor="middle" font-family="Arial, Helvetica, sans-serif" font-size="22" fill="#5f6b7a">same structure, scaled up</text>

  <text x="110" y="386" font-family="Arial, Helvetica, sans-serif" font-size="30" font-weight="700" fill="#1f5aa6">larger, structured experiment</text>
  <g filter="url(#shadow3)">
    <rect x="70" y="425" width="210" height="86" rx="20" fill="#edf2ff"/>
    <rect x="330" y="425" width="210" height="86" rx="20" fill="#eef9ff"/>
    <rect x="590" y="425" width="170" height="86" rx="20" fill="#e9fbf3"/>
    <rect x="810" y="425" width="220" height="86" rx="20" fill="#fff4e8"/>
  </g>
  <g font-family="Arial, Helvetica, sans-serif" font-size="24" fill="#17324d" font-weight="600" text-anchor="middle">
    <text x="175" y="475">parameters</text>
    <text x="435" y="475">generate</text>
    <text x="675" y="475">run</text>
    <text x="920" y="475">analyze</text>
  </g>
  <g stroke="#4d88b8" stroke-width="5" fill="none" marker-end="url(#arrow3)">
    <line x1="280" y1="467" x2="330" y2="467"/>
    <line x1="540" y1="467" x2="590" y2="467"/>
    <line x1="760" y1="467" x2="810" y2="467"/>
  </g>
</svg>
